<svg xmlns="http://www.w3.org/2000/svg" width="380" height="184" viewBox="0 0 380 184" role="img" aria-labelledby="title desc"><title id="title">AERION — abrir demo</title><desc id="desc">Un gran turismo para explorar. 3D / COLOR / SONIDO</desc><rect x="1" y="1" width="378" height="182" rx="16" fill="#0b1720" stroke="#a5beca" stroke-opacity=".35"/><path d="M280 24 L242 160 M316 24 L354 160" stroke="#294552" stroke-width="2"/><path d="M298 30 L298 47 M298 60 L298 78 M298 92 L298 112 M298 128 L298 151" stroke="#67e5ef" stroke-width="2"/><g transform="translate(276 67)"><rect width="44" height="66" rx="17" fill="#67e5ef"/><path d="M7 16 Q22 8 37 16 L34 30 H10Z" fill="#15303f"/><rect x="9" y="43" width="26" height="10" rx="3" fill="#15303f"/><path d="M5 8h7m20 0h7" stroke="white" stroke-width="3"/></g><g font-family="Arial, Helvetica, sans-serif"><text x="24" y="32" font-size="10" letter-spacing="2" fill="#a5beca">EXPERIENCIA INTERACTIVA</text><text x="24" y="76" font-size="29" font-weight="700" fill="#edfaff">AERION</text><text x="24" y="101" font-size="13" fill="#a5beca">Un gran turismo para explorar.</text><text x="24" y="126" font-size="10" letter-spacing="1" fill="#a5beca">3D / COLOR / SONIDO</text><path d="M24 142H356" stroke="#a5beca" stroke-opacity=".25"/><text x="24" y="166" font-size="11" font-weight="700" letter-spacing="1.5" fill="#67e5ef">CONDUCIR LA DEMO</text><text x="340" y="168" font-size="22" fill="#67e5ef">↗</text></g></svg>